<svg width="128" height="128" viewBox="0 0 128 128" fill="none" xmlns="http://www.w3.org/2000/svg">
  <rect width="128" height="128" rx="28" fill="#111111"/>
  <path d="M88.6 36.6C80.8 36.1 73.6 39.3 68.8 44.6C64.5 40.4 58.6 37.8 52.1 37.8C38.9 37.8 28.2 48.5 28.2 61.7C28.2 74.9 38.9 85.6 52.1 85.6H78.6C91.8 85.6 102.5 74.9 102.5 61.7C102.5 50.4 96.5 39.9 88.6 36.6Z" fill="#FF7A1A"/>
  <path d="M51.4 56.7C46.1 56.7 41.8 61 41.8 66.3C41.8 71.6 46.1 75.9 51.4 75.9C56.7 75.9 61 71.6 61 66.3C61 61 56.7 56.7 51.4 56.7Z" fill="white"/>
  <path d="M78.8 56.7C73.5 56.7 69.2 61 69.2 66.3C69.2 71.6 73.5 75.9 78.8 75.9C84.1 75.9 88.4 71.6 88.4 66.3C88.4 61 84.1 56.7 78.8 56.7Z" fill="white"/>
  <path d="M54.1 65.3C54.1 67.4 52.4 69.1 50.3 69.1C48.2 69.1 46.5 67.4 46.5 65.3C46.5 63.2 48.2 61.5 50.3 61.5C52.4 61.5 54.1 63.2 54.1 65.3Z" fill="#111111"/>
  <path d="M81.5 65.3C81.5 67.4 79.8 69.1 77.7 69.1C75.6 69.1 73.9 67.4 73.9 65.3C73.9 63.2 75.6 61.5 77.7 61.5C79.8 61.5 81.5 63.2 81.5 65.3Z" fill="#111111"/>
  <path d="M64 78.4L57.8 88.2H70.2L64 78.4Z" fill="white"/>
  <path d="M37.7 32.5L51.4 42.1L33 48L37.7 32.5Z" fill="#FF7A1A"/>
  <path d="M90.3 32.5L76.6 42.1L95 48L90.3 32.5Z" fill="#FF7A1A"/>
</svg>
